<svg xmlns="http://www.w3.org/2000/svg" width="760" height="300" viewBox="0 0 760 300" font-family="system-ui,-apple-system,Segoe UI,Roboto,sans-serif" role="img"><text x="0" y="16" font-size="13" font-weight="600" fill="#f0f0ee">What one query costs</text><text x="0" y="32" font-size="11" fill="#a8a79e">lower is better — correctness was a tie, so this is where the arms differ</text><text x="0" y="48" font-size="11.5" font-weight="600" fill="#f0f0ee">Content tokens per query</text><text x="0" y="62" font-size="10" fill="#a8a79e">median, excluding each arm's fixed baseline</text><path d="M49.5 250 L49.5 200.42140062577712 Q49.5 196.42140062577712 53.5 196.42140062577712 L99.5 196.42140062577712 Q103.5 196.42140062577712 103.5 200.42140062577712 L103.5 250 Z" fill="#3987e5"/><text x="76.5" y="191.42140062577712" font-size="11" font-weight="600" fill="#f0f0ee" text-anchor="middle">57k</text><text x="76.5" y="268" font-size="10.5" fill="#a8a79e" text-anchor="middle">grep</text><path d="M153 250 L153 103.15254237288136 Q153 99.15254237288136 157 99.15254237288136 L203 99.15254237288136 Q207 99.15254237288136 207 103.15254237288136 L207 250 Z" fill="#d95926"/><text x="180" y="94.15254237288136" font-size="11" font-weight="600" fill="#f0f0ee" text-anchor="middle">162k</text><text x="180" y="268" font-size="10.5" fill="#a8a79e" text-anchor="middle">graphify</text><path d="M256.5 250 L256.5 160.9370802246189 Q256.5 156.9370802246189 260.5 156.9370802246189 L306.5 156.9370802246189 Q310.5 156.9370802246189 310.5 160.9370802246189 L310.5 250 Z" fill="#199e70"/><text x="283.5" y="151.9370802246189" font-size="11" font-weight="600" fill="#f0f0ee" text-anchor="middle">100k</text><text x="283.5" y="268" font-size="10.5" fill="#a8a79e" text-anchor="middle">codegraph</text><line x1="0" y1="254" x2="360" y2="254" stroke="#33332f" stroke-width="1"/><text x="400" y="48" font-size="11.5" font-weight="600" fill="#f0f0ee">Latency per query</text><text x="400" y="62" font-size="10" fill="#a8a79e">median wall-clock seconds</text><path d="M449.5 250 L449.5 156.969825146704 Q449.5 152.969825146704 453.5 152.969825146704 L499.5 152.969825146704 Q503.5 152.969825146704 503.5 156.969825146704 L503.5 250 Z" fill="#3987e5"/><text x="476.5" y="147.969825146704" font-size="11" font-weight="600" fill="#f0f0ee" text-anchor="middle">18.3s</text><text x="476.5" y="268" font-size="10.5" fill="#a8a79e" text-anchor="middle">grep</text><path d="M553 250 L553 103.15254237288136 Q553 99.15254237288136 557 99.15254237288136 L603 99.15254237288136 Q607 99.15254237288136 607 103.15254237288136 L607 250 Z" fill="#d95926"/><text x="580" y="94.15254237288136" font-size="11" font-weight="600" fill="#f0f0ee" text-anchor="middle">28.4s</text><text x="580" y="268" font-size="10.5" fill="#a8a79e" text-anchor="middle">graphify</text><path d="M656.5 250 L656.5 104.74320097703375 Q656.5 100.74320097703375 660.5 100.74320097703375 L706.5 100.74320097703375 Q710.5 100.74320097703375 710.5 104.74320097703375 L710.5 250 Z" fill="#199e70"/><text x="683.5" y="95.74320097703375" font-size="11" font-weight="600" fill="#f0f0ee" text-anchor="middle">28.1s</text><text x="683.5" y="268" font-size="10.5" fill="#a8a79e" text-anchor="middle">codegraph</text><line x1="400" y1="254" x2="760" y2="254" stroke="#33332f" stroke-width="1"/></svg>
