<svg xmlns="http://www.w3.org/2000/svg" width="760" height="330" viewBox="0 0 760 330" font-family="system-ui,-apple-system,Segoe UI,Roboto,sans-serif" role="img"><text x="0" y="16" font-size="13" font-weight="600" fill="#0b0b0b">Correctness by question class</text><text x="0" y="32" font-size="11" fill="#52514e">median score across reps — 1.00 = every required fact recovered</text><rect x="468" y="14" width="9" height="9" rx="2" fill="#2a78d6"/><text x="482" y="22" font-size="11" fill="#52514e">grep</text><rect x="560" y="14" width="9" height="9" rx="2" fill="#eb6834"/><text x="574" y="22" font-size="11" fill="#52514e">graphify</text><rect x="652" y="14" width="9" height="9" rx="2" fill="#1baf7a"/><text x="666" y="22" font-size="11" fill="#52514e">codegraph</text><line x1="46" y1="278" x2="744" y2="278" stroke="#e3e3e0" stroke-width="1"/><text x="38" y="281.5" font-size="10" fill="#52514e" text-anchor="end">0.00</text><line x1="46" y1="222" x2="744" y2="222" stroke="#e3e3e0" stroke-width="1"/><text x="38" y="225.5" font-size="10" fill="#52514e" text-anchor="end">0.25</text><line x1="46" y1="166" x2="744" y2="166" stroke="#e3e3e0" stroke-width="1"/><text x="38" y="169.5" font-size="10" fill="#52514e" text-anchor="end">0.50</text><line x1="46" y1="110" x2="744" y2="110" stroke="#e3e3e0" stroke-width="1"/><text x="38" y="113.5" font-size="10" fill="#52514e" text-anchor="end">0.75</text><line x1="46" y1="54" x2="744" y2="54" stroke="#e3e3e0" stroke-width="1"/><text x="38" y="57.5" font-size="10" fill="#52514e" text-anchor="end">1.00</text><path d="M74.8 278 L74.8 58 Q74.8 54 78.8 54 L96.8 54 Q100.8 54 100.8 58 L100.8 278 Z" fill="#2a78d6"/><text x="87.8" y="49" font-size="9.5" fill="#52514e" text-anchor="middle">1.00</text><path d="M102.8 278 L102.8 58 Q102.8 54 106.8 54 L124.80000000000001 54 Q128.8 54 128.8 58 L128.8 278 Z" fill="#eb6834"/><text x="115.8" y="49" font-size="9.5" fill="#52514e" text-anchor="middle">1.00</text><path d="M130.8 278 L130.8 58 Q130.8 54 134.8 54 L152.8 54 Q156.8 54 156.8 58 L156.8 278 Z" fill="#1baf7a"/><text x="143.8" y="49" font-size="9.5" fill="#52514e" text-anchor="middle">1.00</text><text x="115.8" y="294" font-size="11" fill="#0b0b0b" text-anchor="middle">lookup</text><text x="115.8" y="308" font-size="9.5" fill="#52514e" text-anchor="middle">n=9/arm</text><path d="M214.39999999999998 278 L214.39999999999998 58 Q214.39999999999998 54 218.39999999999998 54 L236.39999999999998 54 Q240.39999999999998 54 240.39999999999998 58 L240.39999999999998 278 Z" fill="#2a78d6"/><text x="227.39999999999998" y="49" font-size="9.5" fill="#52514e" text-anchor="middle">1.00</text><path d="M242.39999999999998 278 L242.39999999999998 58 Q242.39999999999998 54 246.39999999999998 54 L264.4 54 Q268.4 54 268.4 58 L268.4 278 Z" fill="#eb6834"/><text x="255.39999999999998" y="49" font-size="9.5" fill="#52514e" text-anchor="middle">1.00</text><path d="M270.4 278 L270.4 58 Q270.4 54 274.4 54 L292.4 54 Q296.4 54 296.4 58 L296.4 278 Z" fill="#1baf7a"/><text x="283.4" y="49" font-size="9.5" fill="#52514e" text-anchor="middle">1.00</text><text x="255.39999999999998" y="294" font-size="11" fill="#0b0b0b" text-anchor="middle">structural</text><text x="255.39999999999998" y="308" font-size="9.5" fill="#52514e" text-anchor="middle">n=9/arm</text><path d="M354 278 L354 58 Q354 54 358 54 L376 54 Q380 54 380 58 L380 278 Z" fill="#2a78d6"/><text x="367" y="49" font-size="9.5" fill="#52514e" text-anchor="middle">1.00</text><path d="M382 278 L382 58 Q382 54 386 54 L404 54 Q408 54 408 58 L408 278 Z" fill="#eb6834"/><text x="395" y="49" font-size="9.5" fill="#52514e" text-anchor="middle">1.00</text><path d="M410 278 L410 58 Q410 54 414 54 L432 54 Q436 54 436 58 L436 278 Z" fill="#1baf7a"/><text x="423" y="49" font-size="9.5" fill="#52514e" text-anchor="middle">1.00</text><text x="395" y="294" font-size="11" fill="#0b0b0b" text-anchor="middle">blast</text><text x="395" y="308" font-size="9.5" fill="#52514e" text-anchor="middle">n=9/arm</text><path d="M493.59999999999997 278 L493.59999999999997 58 Q493.59999999999997 54 497.59999999999997 54 L515.5999999999999 54 Q519.5999999999999 54 519.5999999999999 58 L519.5999999999999 278 Z" fill="#2a78d6"/><text x="506.59999999999997" y="49" font-size="9.5" fill="#52514e" text-anchor="middle">1.00</text><path d="M521.5999999999999 278 L521.5999999999999 58 Q521.5999999999999 54 525.5999999999999 54 L543.5999999999999 54 Q547.5999999999999 54 547.5999999999999 58 L547.5999999999999 278 Z" fill="#eb6834"/><text x="534.5999999999999" y="49" font-size="9.5" fill="#52514e" text-anchor="middle">1.00</text><path d="M549.5999999999999 278 L549.5999999999999 136.4 Q549.5999999999999 132.4 553.5999999999999 132.4 L571.5999999999999 132.4 Q575.5999999999999 132.4 575.5999999999999 136.4 L575.5999999999999 278 Z" fill="#1baf7a"/><text x="562.5999999999999" y="127.4" font-size="9.5" fill="#52514e" text-anchor="middle">0.65</text><text x="534.5999999999999" y="294" font-size="11" fill="#0b0b0b" text-anchor="middle">arch</text><text x="534.5999999999999" y="308" font-size="9.5" fill="#52514e" text-anchor="middle">n=40/arm</text><path d="M633.1999999999999 278 L633.1999999999999 58 Q633.1999999999999 54 637.1999999999999 54 L655.1999999999999 54 Q659.1999999999999 54 659.1999999999999 58 L659.1999999999999 278 Z" fill="#2a78d6"/><text x="646.1999999999999" y="49" font-size="9.5" fill="#52514e" text-anchor="middle">1.00</text><path d="M661.1999999999999 278 L661.1999999999999 58 Q661.1999999999999 54 665.1999999999999 54 L683.1999999999999 54 Q687.1999999999999 54 687.1999999999999 58 L687.1999999999999 278 Z" fill="#eb6834"/><text x="674.1999999999999" y="49" font-size="9.5" fill="#52514e" text-anchor="middle">1.00</text><path d="M689.1999999999999 278 L689.1999999999999 58 Q689.1999999999999 54 693.1999999999999 54 L711.1999999999999 54 Q715.1999999999999 54 715.1999999999999 58 L715.1999999999999 278 Z" fill="#1baf7a"/><text x="702.1999999999999" y="49" font-size="9.5" fill="#52514e" text-anchor="middle">1.00</text><text x="674.1999999999999" y="294" font-size="11" fill="#0b0b0b" text-anchor="middle">abstain</text><text x="674.1999999999999" y="308" font-size="9.5" fill="#52514e" text-anchor="middle">n=9/arm</text><line x1="46" y1="278" x2="744" y2="278" stroke="#e3e3e0" stroke-width="1"/></svg>
