<svg xmlns="http://www.w3.org/2000/svg" width="760" height="366" viewBox="0 0 760 366" font-family="system-ui,-apple-system,Segoe UI,Roboto,sans-serif" role="img"><text x="0" y="16" font-size="13" font-weight="600" fill="#0b0b0b">Architecture class: every individual run</text><text x="0" y="32" font-size="11" fill="#52514e">one lane per arm · each dot is one answer (A1-A4, 10 reps each) · black rule = median</text><line x1="118" y1="60" x2="118" y2="322" stroke="#e3e3e0" stroke-width="1"/><text x="118" y="338" font-size="10" fill="#52514e" text-anchor="middle">0.00</text><line x1="248" y1="60" x2="248" y2="322" stroke="#e3e3e0" stroke-width="1"/><text x="248" y="338" font-size="10" fill="#52514e" text-anchor="middle">0.25</text><line x1="378" y1="60" x2="378" y2="322" stroke="#e3e3e0" stroke-width="1"/><text x="378" y="338" font-size="10" fill="#52514e" text-anchor="middle">0.50</text><line x1="508" y1="60" x2="508" y2="322" stroke="#e3e3e0" stroke-width="1"/><text x="508" y="338" font-size="10" fill="#52514e" text-anchor="middle">0.75</text><line x1="638" y1="60" x2="638" y2="322" stroke="#e3e3e0" stroke-width="1"/><text x="638" y="338" font-size="10" fill="#52514e" text-anchor="middle">1.00</text><text x="378" y="354" font-size="10.5" fill="#52514e" text-anchor="middle">score</text><text x="106" y="102" font-size="11" fill="#0b0b0b" text-anchor="end">grep</text><circle cx="618.4" cy="82.25" r="3.6" fill="#2a78d6" fill-opacity="0.85" stroke="#ffffff" stroke-width="1.5"/><circle cx="624" cy="82.25" r="3.6" fill="#2a78d6" fill-opacity="0.85" stroke="#ffffff" stroke-width="1.5"/><circle cx="629.6" cy="82.25" r="3.6" fill="#2a78d6" fill-opacity="0.85" stroke="#ffffff" stroke-width="1.5"/><circle cx="634" cy="82.25" r="3.6" fill="#2a78d6" fill-opacity="0.85" stroke="#ffffff" stroke-width="1.5"/><circle cx="634" cy="82.25" r="3.6" fill="#2a78d6" fill-opacity="0.85" stroke="#ffffff" stroke-width="1.5"/><circle cx="634" cy="82.25" r="3.6" fill="#2a78d6" fill-opacity="0.85" stroke="#ffffff" stroke-width="1.5"/><circle cx="634" cy="82.25" r="3.6" fill="#2a78d6" fill-opacity="0.85" stroke="#ffffff" stroke-width="1.5"/><circle cx="634" cy="82.25" r="3.6" fill="#2a78d6" fill-opacity="0.85" stroke="#ffffff" stroke-width="1.5"/><circle cx="358.4" cy="98" r="3.6" fill="#2a78d6" fill-opacity="0.85" stroke="#ffffff" stroke-width="1.5"/><circle cx="122" cy="98" r="3.6" fill="#2a78d6" fill-opacity="0.85" stroke="#ffffff" stroke-width="1.5"/><circle cx="364" cy="98" r="3.6" fill="#2a78d6" fill-opacity="0.85" stroke="#ffffff" stroke-width="1.5"/><circle cx="122" cy="98" r="3.6" fill="#2a78d6" fill-opacity="0.85" stroke="#ffffff" stroke-width="1.5"/><circle cx="618.4" cy="92.75" r="3.6" fill="#2a78d6" fill-opacity="0.85" stroke="#ffffff" stroke-width="1.5"/><circle cx="624" cy="92.75" r="3.6" fill="#2a78d6" fill-opacity="0.85" stroke="#ffffff" stroke-width="1.5"/><circle cx="629.6" cy="92.75" r="3.6" fill="#2a78d6" fill-opacity="0.85" stroke="#ffffff" stroke-width="1.5"/><circle cx="634" cy="92.75" r="3.6" fill="#2a78d6" fill-opacity="0.85" stroke="#ffffff" stroke-width="1.5"/><circle cx="634" cy="92.75" r="3.6" fill="#2a78d6" fill-opacity="0.85" stroke="#ffffff" stroke-width="1.5"/><circle cx="634" cy="92.75" r="3.6" fill="#2a78d6" fill-opacity="0.85" stroke="#ffffff" stroke-width="1.5"/><circle cx="634" cy="92.75" r="3.6" fill="#2a78d6" fill-opacity="0.85" stroke="#ffffff" stroke-width="1.5"/><circle cx="634" cy="92.75" r="3.6" fill="#2a78d6" fill-opacity="0.85" stroke="#ffffff" stroke-width="1.5"/><circle cx="618.4" cy="103.25" r="3.6" fill="#2a78d6" fill-opacity="0.85" stroke="#ffffff" stroke-width="1.5"/><circle cx="624" cy="103.25" r="3.6" fill="#2a78d6" fill-opacity="0.85" stroke="#ffffff" stroke-width="1.5"/><circle cx="629.6" cy="103.25" r="3.6" fill="#2a78d6" fill-opacity="0.85" stroke="#ffffff" stroke-width="1.5"/><circle cx="634" cy="103.25" r="3.6" fill="#2a78d6" fill-opacity="0.85" stroke="#ffffff" stroke-width="1.5"/><circle cx="634" cy="103.25" r="3.6" fill="#2a78d6" fill-opacity="0.85" stroke="#ffffff" stroke-width="1.5"/><circle cx="634" cy="103.25" r="3.6" fill="#2a78d6" fill-opacity="0.85" stroke="#ffffff" stroke-width="1.5"/><circle cx="369.6" cy="98" r="3.6" fill="#2a78d6" fill-opacity="0.85" stroke="#ffffff" stroke-width="1.5"/><circle cx="634" cy="103.25" r="3.6" fill="#2a78d6" fill-opacity="0.85" stroke="#ffffff" stroke-width="1.5"/><circle cx="634" cy="103.25" r="3.6" fill="#2a78d6" fill-opacity="0.85" stroke="#ffffff" stroke-width="1.5"/><circle cx="618.4" cy="113.75" r="3.6" fill="#2a78d6" fill-opacity="0.85" stroke="#ffffff" stroke-width="1.5"/><circle cx="375.2" cy="98" r="3.6" fill="#2a78d6" fill-opacity="0.85" stroke="#ffffff" stroke-width="1.5"/><circle cx="380.8" cy="98" r="3.6" fill="#2a78d6" fill-opacity="0.85" stroke="#ffffff" stroke-width="1.5"/><circle cx="624" cy="113.75" r="3.6" fill="#2a78d6" fill-opacity="0.85" stroke="#ffffff" stroke-width="1.5"/><circle cx="122" cy="98" r="3.6" fill="#2a78d6" fill-opacity="0.85" stroke="#ffffff" stroke-width="1.5"/><circle cx="386.4" cy="98" r="3.6" fill="#2a78d6" fill-opacity="0.85" stroke="#ffffff" stroke-width="1.5"/><circle cx="122" cy="98" r="3.6" fill="#2a78d6" fill-opacity="0.85" stroke="#ffffff" stroke-width="1.5"/><circle cx="392" cy="98" r="3.6" fill="#2a78d6" fill-opacity="0.85" stroke="#ffffff" stroke-width="1.5"/><circle cx="122" cy="98" r="3.6" fill="#2a78d6" fill-opacity="0.85" stroke="#ffffff" stroke-width="1.5"/><circle cx="126.4" cy="98" r="3.6" fill="#2a78d6" fill-opacity="0.85" stroke="#ffffff" stroke-width="1.5"/><circle cx="132" cy="98" r="3.6" fill="#2a78d6" fill-opacity="0.85" stroke="#ffffff" stroke-width="1.5"/><line x1="638" y1="74" x2="638" y2="122" stroke="#0b0b0b" stroke-width="2" stroke-linecap="round"/><text x="648" y="101.5" font-size="9.5" fill="#52514e">median 1.00 · n=40</text><text x="106" y="166" font-size="11" fill="#0b0b0b" text-anchor="end">graphify</text><circle cx="436.4" cy="162" r="3.6" fill="#eb6834" fill-opacity="0.85" stroke="#ffffff" stroke-width="1.5"/><circle cx="618.4" cy="151.5" r="3.6" fill="#eb6834" fill-opacity="0.85" stroke="#ffffff" stroke-width="1.5"/><circle cx="442" cy="162" r="3.6" fill="#eb6834" fill-opacity="0.85" stroke="#ffffff" stroke-width="1.5"/><circle cx="624" cy="151.5" r="3.6" fill="#eb6834" fill-opacity="0.85" stroke="#ffffff" stroke-width="1.5"/><circle cx="629.6" cy="151.5" r="3.6" fill="#eb6834" fill-opacity="0.85" stroke="#ffffff" stroke-width="1.5"/><circle cx="634" cy="151.5" r="3.6" fill="#eb6834" fill-opacity="0.85" stroke="#ffffff" stroke-width="1.5"/><circle cx="634" cy="151.5" r="3.6" fill="#eb6834" fill-opacity="0.85" stroke="#ffffff" stroke-width="1.5"/><circle cx="358.4" cy="156.75" r="3.6" fill="#eb6834" fill-opacity="0.85" stroke="#ffffff" stroke-width="1.5"/><circle cx="364" cy="156.75" r="3.6" fill="#eb6834" fill-opacity="0.85" stroke="#ffffff" stroke-width="1.5"/><circle cx="369.6" cy="156.75" r="3.6" fill="#eb6834" fill-opacity="0.85" stroke="#ffffff" stroke-width="1.5"/><circle cx="122" cy="162" r="3.6" fill="#eb6834" fill-opacity="0.85" stroke="#ffffff" stroke-width="1.5"/><circle cx="375.2" cy="156.75" r="3.6" fill="#eb6834" fill-opacity="0.85" stroke="#ffffff" stroke-width="1.5"/><circle cx="634" cy="151.5" r="3.6" fill="#eb6834" fill-opacity="0.85" stroke="#ffffff" stroke-width="1.5"/><circle cx="447.6" cy="162" r="3.6" fill="#eb6834" fill-opacity="0.85" stroke="#ffffff" stroke-width="1.5"/><circle cx="453.2" cy="162" r="3.6" fill="#eb6834" fill-opacity="0.85" stroke="#ffffff" stroke-width="1.5"/><circle cx="458.8" cy="162" r="3.6" fill="#eb6834" fill-opacity="0.85" stroke="#ffffff" stroke-width="1.5"/><circle cx="464.4" cy="162" r="3.6" fill="#eb6834" fill-opacity="0.85" stroke="#ffffff" stroke-width="1.5"/><circle cx="634" cy="151.5" r="3.6" fill="#eb6834" fill-opacity="0.85" stroke="#ffffff" stroke-width="1.5"/><circle cx="634" cy="151.5" r="3.6" fill="#eb6834" fill-opacity="0.85" stroke="#ffffff" stroke-width="1.5"/><circle cx="618.4" cy="162" r="3.6" fill="#eb6834" fill-opacity="0.85" stroke="#ffffff" stroke-width="1.5"/><circle cx="624" cy="162" r="3.6" fill="#eb6834" fill-opacity="0.85" stroke="#ffffff" stroke-width="1.5"/><circle cx="629.6" cy="162" r="3.6" fill="#eb6834" fill-opacity="0.85" stroke="#ffffff" stroke-width="1.5"/><circle cx="634" cy="162" r="3.6" fill="#eb6834" fill-opacity="0.85" stroke="#ffffff" stroke-width="1.5"/><circle cx="634" cy="162" r="3.6" fill="#eb6834" fill-opacity="0.85" stroke="#ffffff" stroke-width="1.5"/><circle cx="634" cy="162" r="3.6" fill="#eb6834" fill-opacity="0.85" stroke="#ffffff" stroke-width="1.5"/><circle cx="634" cy="162" r="3.6" fill="#eb6834" fill-opacity="0.85" stroke="#ffffff" stroke-width="1.5"/><circle cx="380.8" cy="156.75" r="3.6" fill="#eb6834" fill-opacity="0.85" stroke="#ffffff" stroke-width="1.5"/><circle cx="386.4" cy="156.75" r="3.6" fill="#eb6834" fill-opacity="0.85" stroke="#ffffff" stroke-width="1.5"/><circle cx="634" cy="162" r="3.6" fill="#eb6834" fill-opacity="0.85" stroke="#ffffff" stroke-width="1.5"/><circle cx="392" cy="156.75" r="3.6" fill="#eb6834" fill-opacity="0.85" stroke="#ffffff" stroke-width="1.5"/><circle cx="397.6" cy="156.75" r="3.6" fill="#eb6834" fill-opacity="0.85" stroke="#ffffff" stroke-width="1.5"/><circle cx="618.4" cy="172.5" r="3.6" fill="#eb6834" fill-opacity="0.85" stroke="#ffffff" stroke-width="1.5"/><circle cx="358.4" cy="167.25" r="3.6" fill="#eb6834" fill-opacity="0.85" stroke="#ffffff" stroke-width="1.5"/><circle cx="122" cy="162" r="3.6" fill="#eb6834" fill-opacity="0.85" stroke="#ffffff" stroke-width="1.5"/><circle cx="122" cy="162" r="3.6" fill="#eb6834" fill-opacity="0.85" stroke="#ffffff" stroke-width="1.5"/><circle cx="122" cy="162" r="3.6" fill="#eb6834" fill-opacity="0.85" stroke="#ffffff" stroke-width="1.5"/><circle cx="364" cy="167.25" r="3.6" fill="#eb6834" fill-opacity="0.85" stroke="#ffffff" stroke-width="1.5"/><circle cx="122" cy="162" r="3.6" fill="#eb6834" fill-opacity="0.85" stroke="#ffffff" stroke-width="1.5"/><circle cx="126.4" cy="162" r="3.6" fill="#eb6834" fill-opacity="0.85" stroke="#ffffff" stroke-width="1.5"/><circle cx="132" cy="162" r="3.6" fill="#eb6834" fill-opacity="0.85" stroke="#ffffff" stroke-width="1.5"/><line x1="456" y1="138" x2="456" y2="186" stroke="#0b0b0b" stroke-width="2" stroke-linecap="round"/><text x="648" y="165.5" font-size="9.5" fill="#52514e">median 0.65 · n=40</text><text x="106" y="230" font-size="11" fill="#0b0b0b" text-anchor="end">codegraph</text><circle cx="618.4" cy="215.5" r="3.6" fill="#1baf7a" fill-opacity="0.85" stroke="#ffffff" stroke-width="1.5"/><circle cx="436.4" cy="226" r="3.6" fill="#1baf7a" fill-opacity="0.85" stroke="#ffffff" stroke-width="1.5"/><circle cx="624" cy="215.5" r="3.6" fill="#1baf7a" fill-opacity="0.85" stroke="#ffffff" stroke-width="1.5"/><circle cx="122" cy="220.75" r="3.6" fill="#1baf7a" fill-opacity="0.85" stroke="#ffffff" stroke-width="1.5"/><circle cx="629.6" cy="215.5" r="3.6" fill="#1baf7a" fill-opacity="0.85" stroke="#ffffff" stroke-width="1.5"/><circle cx="358.4" cy="226" r="3.6" fill="#1baf7a" fill-opacity="0.85" stroke="#ffffff" stroke-width="1.5"/><circle cx="634" cy="215.5" r="3.6" fill="#1baf7a" fill-opacity="0.85" stroke="#ffffff" stroke-width="1.5"/><circle cx="634" cy="215.5" r="3.6" fill="#1baf7a" fill-opacity="0.85" stroke="#ffffff" stroke-width="1.5"/><circle cx="634" cy="215.5" r="3.6" fill="#1baf7a" fill-opacity="0.85" stroke="#ffffff" stroke-width="1.5"/><circle cx="364" cy="226" r="3.6" fill="#1baf7a" fill-opacity="0.85" stroke="#ffffff" stroke-width="1.5"/><circle cx="122" cy="220.75" r="3.6" fill="#1baf7a" fill-opacity="0.85" stroke="#ffffff" stroke-width="1.5"/><circle cx="122" cy="220.75" r="3.6" fill="#1baf7a" fill-opacity="0.85" stroke="#ffffff" stroke-width="1.5"/><circle cx="634" cy="215.5" r="3.6" fill="#1baf7a" fill-opacity="0.85" stroke="#ffffff" stroke-width="1.5"/><circle cx="634" cy="215.5" r="3.6" fill="#1baf7a" fill-opacity="0.85" stroke="#ffffff" stroke-width="1.5"/><circle cx="618.4" cy="226" r="3.6" fill="#1baf7a" fill-opacity="0.85" stroke="#ffffff" stroke-width="1.5"/><circle cx="624" cy="226" r="3.6" fill="#1baf7a" fill-opacity="0.85" stroke="#ffffff" stroke-width="1.5"/><circle cx="629.6" cy="226" r="3.6" fill="#1baf7a" fill-opacity="0.85" stroke="#ffffff" stroke-width="1.5"/><circle cx="442" cy="226" r="3.6" fill="#1baf7a" fill-opacity="0.85" stroke="#ffffff" stroke-width="1.5"/><circle cx="634" cy="226" r="3.6" fill="#1baf7a" fill-opacity="0.85" stroke="#ffffff" stroke-width="1.5"/><circle cx="634" cy="226" r="3.6" fill="#1baf7a" fill-opacity="0.85" stroke="#ffffff" stroke-width="1.5"/><circle cx="634" cy="226" r="3.6" fill="#1baf7a" fill-opacity="0.85" stroke="#ffffff" stroke-width="1.5"/><circle cx="369.6" cy="226" r="3.6" fill="#1baf7a" fill-opacity="0.85" stroke="#ffffff" stroke-width="1.5"/><circle cx="634" cy="226" r="3.6" fill="#1baf7a" fill-opacity="0.85" stroke="#ffffff" stroke-width="1.5"/><circle cx="634" cy="226" r="3.6" fill="#1baf7a" fill-opacity="0.85" stroke="#ffffff" stroke-width="1.5"/><circle cx="618.4" cy="236.5" r="3.6" fill="#1baf7a" fill-opacity="0.85" stroke="#ffffff" stroke-width="1.5"/><circle cx="624" cy="236.5" r="3.6" fill="#1baf7a" fill-opacity="0.85" stroke="#ffffff" stroke-width="1.5"/><circle cx="375.2" cy="226" r="3.6" fill="#1baf7a" fill-opacity="0.85" stroke="#ffffff" stroke-width="1.5"/><circle cx="629.6" cy="236.5" r="3.6" fill="#1baf7a" fill-opacity="0.85" stroke="#ffffff" stroke-width="1.5"/><circle cx="380.8" cy="226" r="3.6" fill="#1baf7a" fill-opacity="0.85" stroke="#ffffff" stroke-width="1.5"/><circle cx="386.4" cy="226" r="3.6" fill="#1baf7a" fill-opacity="0.85" stroke="#ffffff" stroke-width="1.5"/><circle cx="392" cy="226" r="3.6" fill="#1baf7a" fill-opacity="0.85" stroke="#ffffff" stroke-width="1.5"/><circle cx="634" cy="236.5" r="3.6" fill="#1baf7a" fill-opacity="0.85" stroke="#ffffff" stroke-width="1.5"/><circle cx="397.6" cy="226" r="3.6" fill="#1baf7a" fill-opacity="0.85" stroke="#ffffff" stroke-width="1.5"/><circle cx="122" cy="220.75" r="3.6" fill="#1baf7a" fill-opacity="0.85" stroke="#ffffff" stroke-width="1.5"/><circle cx="122" cy="220.75" r="3.6" fill="#1baf7a" fill-opacity="0.85" stroke="#ffffff" stroke-width="1.5"/><circle cx="126.4" cy="220.75" r="3.6" fill="#1baf7a" fill-opacity="0.85" stroke="#ffffff" stroke-width="1.5"/><circle cx="132" cy="220.75" r="3.6" fill="#1baf7a" fill-opacity="0.85" stroke="#ffffff" stroke-width="1.5"/><circle cx="137.6" cy="220.75" r="3.6" fill="#1baf7a" fill-opacity="0.85" stroke="#ffffff" stroke-width="1.5"/><circle cx="122" cy="231.25" r="3.6" fill="#1baf7a" fill-opacity="0.85" stroke="#ffffff" stroke-width="1.5"/><circle cx="122" cy="231.25" r="3.6" fill="#1baf7a" fill-opacity="0.85" stroke="#ffffff" stroke-width="1.5"/><line x1="547" y1="202" x2="547" y2="250" stroke="#0b0b0b" stroke-width="2" stroke-linecap="round"/><text x="648" y="229.5" font-size="9.5" fill="#52514e">median 0.82 · n=40</text><text x="106" y="294" font-size="11" fill="#0b0b0b" text-anchor="end">hybrid</text><circle cx="618.4" cy="274.25" r="3.6" fill="#eda100" fill-opacity="0.85" stroke="#ffffff" stroke-width="1.5"/><circle cx="624" cy="274.25" r="3.6" fill="#eda100" fill-opacity="0.85" stroke="#ffffff" stroke-width="1.5"/><circle cx="629.6" cy="274.25" r="3.6" fill="#eda100" fill-opacity="0.85" stroke="#ffffff" stroke-width="1.5"/><circle cx="634" cy="274.25" r="3.6" fill="#eda100" fill-opacity="0.85" stroke="#ffffff" stroke-width="1.5"/><circle cx="634" cy="274.25" r="3.6" fill="#eda100" fill-opacity="0.85" stroke="#ffffff" stroke-width="1.5"/><circle cx="634" cy="274.25" r="3.6" fill="#eda100" fill-opacity="0.85" stroke="#ffffff" stroke-width="1.5"/><circle cx="634" cy="274.25" r="3.6" fill="#eda100" fill-opacity="0.85" stroke="#ffffff" stroke-width="1.5"/><circle cx="358.4" cy="284.75" r="3.6" fill="#eda100" fill-opacity="0.85" stroke="#ffffff" stroke-width="1.5"/><circle cx="364" cy="284.75" r="3.6" fill="#eda100" fill-opacity="0.85" stroke="#ffffff" stroke-width="1.5"/><circle cx="369.6" cy="284.75" r="3.6" fill="#eda100" fill-opacity="0.85" stroke="#ffffff" stroke-width="1.5"/><circle cx="375.2" cy="284.75" r="3.6" fill="#eda100" fill-opacity="0.85" stroke="#ffffff" stroke-width="1.5"/><circle cx="122" cy="290" r="3.6" fill="#eda100" fill-opacity="0.85" stroke="#ffffff" stroke-width="1.5"/><circle cx="634" cy="274.25" r="3.6" fill="#eda100" fill-opacity="0.85" stroke="#ffffff" stroke-width="1.5"/><circle cx="618.4" cy="284.75" r="3.6" fill="#eda100" fill-opacity="0.85" stroke="#ffffff" stroke-width="1.5"/><circle cx="624" cy="284.75" r="3.6" fill="#eda100" fill-opacity="0.85" stroke="#ffffff" stroke-width="1.5"/><circle cx="629.6" cy="284.75" r="3.6" fill="#eda100" fill-opacity="0.85" stroke="#ffffff" stroke-width="1.5"/><circle cx="634" cy="284.75" r="3.6" fill="#eda100" fill-opacity="0.85" stroke="#ffffff" stroke-width="1.5"/><circle cx="634" cy="284.75" r="3.6" fill="#eda100" fill-opacity="0.85" stroke="#ffffff" stroke-width="1.5"/><circle cx="634" cy="284.75" r="3.6" fill="#eda100" fill-opacity="0.85" stroke="#ffffff" stroke-width="1.5"/><circle cx="634" cy="284.75" r="3.6" fill="#eda100" fill-opacity="0.85" stroke="#ffffff" stroke-width="1.5"/><circle cx="634" cy="284.75" r="3.6" fill="#eda100" fill-opacity="0.85" stroke="#ffffff" stroke-width="1.5"/><circle cx="618.4" cy="295.25" r="3.6" fill="#eda100" fill-opacity="0.85" stroke="#ffffff" stroke-width="1.5"/><circle cx="624" cy="295.25" r="3.6" fill="#eda100" fill-opacity="0.85" stroke="#ffffff" stroke-width="1.5"/><circle cx="629.6" cy="295.25" r="3.6" fill="#eda100" fill-opacity="0.85" stroke="#ffffff" stroke-width="1.5"/><circle cx="634" cy="295.25" r="3.6" fill="#eda100" fill-opacity="0.85" stroke="#ffffff" stroke-width="1.5"/><circle cx="634" cy="295.25" r="3.6" fill="#eda100" fill-opacity="0.85" stroke="#ffffff" stroke-width="1.5"/><circle cx="634" cy="295.25" r="3.6" fill="#eda100" fill-opacity="0.85" stroke="#ffffff" stroke-width="1.5"/><circle cx="380.8" cy="284.75" r="3.6" fill="#eda100" fill-opacity="0.85" stroke="#ffffff" stroke-width="1.5"/><circle cx="634" cy="295.25" r="3.6" fill="#eda100" fill-opacity="0.85" stroke="#ffffff" stroke-width="1.5"/><circle cx="634" cy="295.25" r="3.6" fill="#eda100" fill-opacity="0.85" stroke="#ffffff" stroke-width="1.5"/><circle cx="618.4" cy="305.75" r="3.6" fill="#eda100" fill-opacity="0.85" stroke="#ffffff" stroke-width="1.5"/><circle cx="386.4" cy="284.75" r="3.6" fill="#eda100" fill-opacity="0.85" stroke="#ffffff" stroke-width="1.5"/><circle cx="392" cy="284.75" r="3.6" fill="#eda100" fill-opacity="0.85" stroke="#ffffff" stroke-width="1.5"/><circle cx="397.6" cy="284.75" r="3.6" fill="#eda100" fill-opacity="0.85" stroke="#ffffff" stroke-width="1.5"/><circle cx="122" cy="290" r="3.6" fill="#eda100" fill-opacity="0.85" stroke="#ffffff" stroke-width="1.5"/><circle cx="122" cy="290" r="3.6" fill="#eda100" fill-opacity="0.85" stroke="#ffffff" stroke-width="1.5"/><circle cx="122" cy="290" r="3.6" fill="#eda100" fill-opacity="0.85" stroke="#ffffff" stroke-width="1.5"/><circle cx="122" cy="290" r="3.6" fill="#eda100" fill-opacity="0.85" stroke="#ffffff" stroke-width="1.5"/><circle cx="358.4" cy="295.25" r="3.6" fill="#eda100" fill-opacity="0.85" stroke="#ffffff" stroke-width="1.5"/><circle cx="126.4" cy="290" r="3.6" fill="#eda100" fill-opacity="0.85" stroke="#ffffff" stroke-width="1.5"/><line x1="638" y1="266" x2="638" y2="314" stroke="#0b0b0b" stroke-width="2" stroke-linecap="round"/><text x="648" y="293.5" font-size="9.5" fill="#52514e">median 1.00 · n=40</text></svg>
